{
  "accessors": [
    {
      "bufferView": 2,
      "componentType": 5126,
      "count": 220,
      "max": [
        0.1311933696269989,
        1.2862038612365723,
        0.2761976718902588
      ],
      "min": [
        -0.13062813878059387,
        0.9391452074050903,
        0.04111085832118988
      ],
      "type": "VEC3"
    },
    {
      "bufferView": 2,
      "byteOffset": 2640,
      "componentType": 5126,
      "count": 220,
      "max": [
        0.9685952663421631,
        0.9999092817306519,
        0.981022298336029
      ],
      "min": [
        -0.8283211588859558,
        -0.9999579787254333,
        -0.9821215867996216
      ],
      "type": "VEC3"
    },
    {
      "bufferView": 3,
      "componentType": 5126,
      "count": 220,
      "max": [
        0.9858449697494507,
        0.8313983678817749,
        1.0,
        1.0
      ],
      "min": [
        -0.9473907947540283,
        -0.8452609181404114,
        -1.0,
        -1.0
      ],
      "type": "VEC4"
    },
    {
      "bufferView": 1,
      "componentType": 5126,
      "count": 220,
      "max": [
        0.9676142930984497,
        0.99016273021698
      ],
      "min": [
        0.02288031578063965,
        0.012357473373413086
      ],
      "type": "VEC2"
    },
    {
      "bufferView": 0,
      "componentType": 5125,
      "count": 594,
      "type": "SCALAR"
    },
    {
      "bufferView": 2,
      "byteOffset": 5280,
      "componentType": 5126,
      "count": 523,
      "max": [
        0.5699999928474426,
        1.0066128969192505,
        0.5699999928474426
      ],
      "min": [
        -0.5699999928474426,
        -0.9904152154922485,
        -0.5699999332427979
      ],
      "type": "VEC3"
    },
    {
      "bufferView": 2,
      "byteOffset": 11556,
      "componentType": 5126,
      "count": 523,
      "max": [
        0.9999999403953552,
        1.0,
        1.0
      ],
      "min": [
        -0.9999998807907104,
        -1.0,
        -0.9999998807907104
      ],
      "type": "VEC3"
    },
    {
      "bufferView": 3,
      "byteOffset": 3520,
      "componentType": 5126,
      "count": 523,
      "max": [
        1.0,
        0.798811137676239,
        1.0,
        1.0
      ],
      "min": [
        -1.0,
        -0.9824461936950684,
        -0.9999998807907104,
        -1.0
      ],
      "type": "VEC4"
    },
    {
      "bufferView": 1,
      "byteOffset": 1760,
      "componentType": 5126,
      "count": 523,
      "max": [
        0.9484542608261108,
        0.9546127319335938
      ],
      "min": [
        0.02205073833465576,
        0.017753005027770996
      ],
      "type": "VEC2"
    },
    {
      "bufferView": 0,
      "byteOffset": 2376,
      "componentType": 5125,
      "count": 2106,
      "type": "SCALAR"
    }
  ],
  "asset": {
    "extras": {
      "author": "Arte Hexe (https://sketchfab.com/illusive_skarwing)",
      "license": "CC-BY-4.0 (http://creativecommons.org/licenses/by/4.0/)",
      "source": "https://sketchfab.com/3d-models/beer-can-b3257907af8248ab99cd27ff8c6a86d1",
      "title": "Beer can"
    },
    "generator": "Sketchfab-12.68.0",
    "version": "2.0"
  },
  "bufferViews": [
    {
      "buffer": 0,
      "byteLength": 10800,
      "name": "floatBufferViews",
      "target": 34963
    },
    {
      "buffer": 0,
      "byteLength": 5944,
      "byteOffset": 10800,
      "byteStride": 8,
      "name": "floatBufferViews",
      "target": 34962
    },
    {
      "buffer": 0,
      "byteLength": 17832,
      "byteOffset": 16744,
      "byteStride": 12,
      "name": "floatBufferViews",
      "target": 34962
    },
    {
      "buffer": 0,
      "byteLength": 11888,
      "byteOffset": 34576,
      "byteStride": 16,
      "name": "floatBufferViews",
      "target": 34962
    }
  ],
  "buffers": [
    {
      "byteLength": 46464,
      "uri": "scene.bin"
    }
  ],
  "images": [
    {
      "uri": "textures/blinn3_baseColor.png"
    },
    {
      "uri": "textures/blinn3_metallicRoughness.png"
    },
    {
      "uri": "textures/blinn3_normal.png"
    }
  ],
  "materials": [
    {
      "doubleSided": true,
      "name": "blinn3",
      "normalTexture": {
        "index": 2
      },
      "occlusionTexture": {
        "index": 1
      },
      "pbrMetallicRoughness": {
        "baseColorTexture": {
          "index": 0
        },
        "metallicRoughnessTexture": {
          "index": 1
        }
      }
    }
  ],
  "meshes": [
    {
      "name": "OpenerT_blinn3_0",
      "primitives": [
        {
          "attributes": {
            "NORMAL": 1,
            "POSITION": 0,
            "TANGENT": 2,
            "TEXCOORD_0": 3
          },
          "indices": 4,
          "material": 0,
          "mode": 4
        }
      ]
    },
    {
      "name": "BodyT_blinn3_0",
      "primitives": [
        {
          "attributes": {
            "NORMAL": 6,
            "POSITION": 5,
            "TANGENT": 7,
            "TEXCOORD_0": 8
          },
          "indices": 9,
          "material": 0,
          "mode": 4
        }
      ]
    }
  ],
  "nodes": [
    {
      "children": [
        1
      ],
      "matrix": [
        1.0,
        0.0,
        0.0,
        0.0,
        0.0,
        2.220446049250313e-16,
        -1.0,
        0.0,
        0.0,
        1.0,
        2.220446049250313e-16,
        0.0,
        0.0,
        0.0,
        0.0,
        1.0
      ],
      "name": "Sketchfab_model"
    },
    {
      "children": [
        2
      ],
      "matrix": [
        1.0,
        0.0,
        0.0,
        0.0,
        0.0,
        0.0,
        1.0,
        0.0,
        0.0,
        -1.0,
        0.0,
        0.0,
        0.0,
        0.0,
        0.0,
        1.0
      ],
      "name": "Beer.fbx"
    },
    {
      "children": [
        3
      ],
      "name": "RootNode"
    },
    {
      "children": [
        4,
        6
      ],
      "name": "LPT"
    },
    {
      "children": [
        5
      ],
      "matrix": [
        1.0,
        0.0,
        0.0,
        0.0,
        0.0,
        1.0,
        0.0,
        0.0,
        0.0,
        0.0,
        1.0,
        0.0,
        0.008505555801093578,
        -0.0405719019472599,
        -0.15899012982845306,
        1.0
      ],
      "name": "OpenerT"
    },
    {
      "mesh": 0,
      "name": "OpenerT_blinn3_0"
    },
    {
      "children": [
        7
      ],
      "name": "BodyT"
    },
    {
      "mesh": 1,
      "name": "BodyT_blinn3_0"
    }
  ],
  "samplers": [
    {
      "magFilter": 9729,
      "minFilter": 9987,
      "wrapS": 10497,
      "wrapT": 10497
    }
  ],
  "scene": 0,
  "scenes": [
    {
      "name": "Sketchfab_Scene",
      "nodes": [
        0
      ]
    }
  ],
  "textures": [
    {
      "sampler": 0,
      "source": 0
    },
    {
      "sampler": 0,
      "source": 1
    },
    {
      "sampler": 0,
      "source": 2
    }
  ]
}
